<svg xmlns="http://www.w3.org/2000/svg" xmlns:xlink="http://www.w3.org/1999/xlink" version="1.1" x="0px" y="0px" viewBox="0 0 100 100" enable-background="new 0 0 100 100" xml:space="preserve" style="max-width:100%" height="100%"><g style="" fill="#C6BDAC"><path fill-rule="evenodd" clip-rule="evenodd" d="M47.944,53.321c0-4.101-3.321-7.426-7.421-7.432   c0.02-13.313,0.039-26.626,0.058-39.94C34.001,5.94,27.421,5.931,20.842,5.921c-3.947-0.006-6.341,3.312-7.188,7.167   c-2.419,11.005-1.634,22.01-0.047,33.016c0.563,3.907,3.22,7.182,7.167,7.188c6.579,0.01,13.159,0.019,19.738,0.028V86.9   c0,3.947,3.23,7.178,7.178,7.178h33.016c3.947,0,7.178-3.23,7.178-7.178V53.321H47.944z" style="" fill="#C6BDAC"></path><path fill-rule="evenodd" clip-rule="evenodd" d="M74.259,34.298H54.137V50.54h20.122V34.298z M59.791,43.822   c-0.774,0-1.403-0.628-1.403-1.403s0.629-1.402,1.403-1.402s1.402,0.627,1.402,1.402S60.565,43.822,59.791,43.822z M64.197,48.229   c-0.772,0-1.402-0.629-1.402-1.402s0.63-1.403,1.402-1.403c0.773,0,1.403,0.63,1.403,1.403S64.971,48.229,64.197,48.229z    M64.197,39.415c-0.772,0-1.402-0.63-1.402-1.403c0-0.772,0.63-1.403,1.402-1.403c0.773,0,1.403,0.63,1.403,1.403   C65.601,38.785,64.971,39.415,64.197,39.415z M68.604,43.822c-0.774,0-1.402-0.628-1.402-1.403s0.628-1.402,1.402-1.402   s1.402,0.627,1.402,1.402S69.379,43.822,68.604,43.822z" style="" fill="#C6BDAC"></path>
<path fill-rule="evenodd" clip-rule="evenodd" d="M64.313,25.874c0.772,0,1.403,2.478,1.698,5.477   c2.17-5.177,0.727-16.132-1.646-16.132c-2.725,0-4.193,10.394-1.945,15.852C62.751,28.198,63.438,25.874,64.313,25.874z" style="" fill="#C6BDAC"></path></g></svg>