<svg xmlns="http://www.w3.org/2000/svg" xmlns:xlink="http://www.w3.org/1999/xlink" version="1.1" x="0px" y="0px" viewBox="0 0 113.004 251.6" style="enable-background:new 0 0 113.004 251.6;max-width:100%" xml:space="preserve" height="100%"><g style="" fill="#C6BDAC">
<path d="M15.998,48.568c0.082,0.08,0.154,0.153,0.248,0.243c0.688,0.656,1.717,1.559,3.041,2.511   c2.643,1.901,6.459,3.995,11.143,4.824c1.441-1.777,2.998-3.655,4.686-5.643l1.006,0.277c0.355,0.098,0.714,0.144,1.065,0.144   c1.755,0,3.364-1.165,3.852-2.938c0.588-2.131-0.664-4.333-2.792-4.918l-1.589-0.438c-0.451-1.316-1.243-2.534-2.381-3.5   c-3.026-2.57-7.406-2.49-10.339-0.005l-6.495-1.79l-9.61-2.648c-2.13-0.586-4.332,0.664-4.918,2.794   c-0.587,2.13,0.664,4.332,2.794,4.92l6.18,1.703l6.3,1.735C17.432,46.772,16.699,47.683,15.998,48.568z" style="" fill="#C6BDAC"></path>
<path d="M102.727,147.76c-2.501-0.002-4.691-0.295-6.025-0.524c-0.073,1.675-0.159,3.385-0.262,5.142   c-0.256,4.41,3.111,8.195,7.521,8.451c0.158,0.01,0.316,0.014,0.473,0.014c4.207,0.002,7.734-3.281,7.98-7.535   c0.158-2.732,0.273-5.351,0.367-7.91C109.685,147.296,105.913,147.746,102.727,147.76z" style="" fill="#C6BDAC"></path>
<path d="M90.045,141.236v-18.939V89.281c0.592,1.215,1.189,2.609,1.777,4.234c2.818,7.813,5.191,20.629,5.18,40.637   c0.001,3.162-0.064,6.526-0.187,10.057c0.306,0.057,0.693,0.123,1.153,0.19c1.221,0.18,2.914,0.36,4.758,0.36   c3.693,0.017,7.855-0.776,10.175-3.255c0.063-2.528,0.102-4.994,0.103-7.352c-0.041-30.182-4.861-46.885-11.434-56.93   c-3.287-4.988-7.129-8.184-10.682-9.955c-3.406-1.719-6.4-2.109-8.203-2.135c-0.123-0.006-0.244-0.018-0.369-0.018h-5.282   l4.372,3.699l1.592,8.574l-5.646,1.143l3.604,6.002c0,0-12.836,22.582-16.438,27.439c-0.518,0.698-0.906,1.112-1.198,1.321   c-0.069,0.128-0.175,0.186-0.321,0.157c-0.146,0.028-0.252-0.029-0.321-0.157c-0.292-0.209-0.681-0.623-1.198-1.321   c-3.602-4.857-16.437-27.439-16.437-27.439l3.604-6.002l-5.646-1.143l1.592-8.574l4.371-3.699h-5.279   c-0.01,0-0.02,0.002-0.029,0.002H38.1c-1.355,0-2.662,0.334-3.85,0.984c-0.002,0.004-0.195,0.109-0.631,0.34   c-1.516,0.805-5.605,2.908-10.01,4.727c-1.797,0.744-3.648,1.438-5.344,1.977c0.504-0.906,1.106-1.91,1.815-2.996   c1.949-3.056,4.673-6.844,8.256-11.384c-7.113-1.703-12.066-5.775-14.197-7.818c-3.436,4.454-6.146,8.32-8.252,11.722   c-1.832,2.967-3.215,5.584-4.215,8.074C0.689,73.24,0.018,75.613,0,78.338c-0.002,1.615,0.277,3.398,1.063,5.131   c1.141,2.643,3.543,4.736,5.748,5.648c2.232,0.969,4.238,1.162,6.059,1.176c3.535-0.029,6.707-0.82,9.912-1.795   c4.779-1.504,9.572-3.604,13.172-5.324v39.123v18.939v98c0,6.83,5.537,12.363,12.363,12.363c6.828,0,12.365-5.533,12.365-12.363   v-90.271h4.635v90.271c0,6.83,5.537,12.363,12.363,12.363c6.828,0,12.365-5.533,12.365-12.363V141.236z" style="" fill="#C6BDAC"></path>
<path d="M53.373,77.104l9.234,31.156c0,0,0.191,0.665,0.391,1.519c0.199-0.854,0.391-1.519,0.391-1.519l9.234-31.156l0.533-11.988   H52.838L53.373,77.104z" style="" fill="#C6BDAC"></path>
<path d="M59.346,59.116c1.189,0.194,2.408,0.3,3.652,0.3c1.245,0,2.465-0.105,3.655-0.3c10.688-1.746,18.845-11.018,18.845-22.2   c0-12.426-10.072-22.5-22.5-22.5c-12.426,0-22.5,10.074-22.5,22.5c0,0.073,0.005,0.145,0.006,0.218   c0.034,3.599,0.914,6.993,2.449,9.999C46.147,53.385,52.174,57.945,59.346,59.116z" style="" fill="#C6BDAC"></path>
<path d="M11.051,21.332c1.234-0.834,3.301-1.338,6.195-1.332c3.221,0.002,5.982-1.08,7.93-2.892   c1.949-1.807,3.074-4.338,3.07-7.107c0.002-2.346,0.582-4.305,1.908-5.682C31.479,2.943,33.66,2.006,37.244,2V0   c-3.914-0.006-6.73,1.057-8.531,2.934C26.912,4.805,26.244,7.346,26.246,10c-0.025,4.432-3.451,7.961-9,8   c-3.108,0.006-5.539,0.502-7.305,1.668c-1.779,1.16-2.721,3.09-2.695,5.33c0,4.002,0,7.002,0,7.002h1.998c0,0,0.002-3,0-7.002   C9.27,23.242,9.828,22.172,11.051,21.332z" style="" fill="#C6BDAC"></path>
<path d="M4.869,13.287c-1.398,0.26-2.629,1.072-3.146,2.451c-0.354,0.894-0.475,1.945-0.477,3.264c0,4.998,0,12.998,0,12.998h2   c0,0,0-8,0-12.998c-0.002-1.186,0.127-2.012,0.334-2.52c0.217-0.512,0.436-0.738,0.863-0.963c0.852-0.463,2.805-0.539,5.803-0.52   c1.203-0.045,1.848,0.012,2.619-0.564c0.254-0.211,0.457-0.627,0.443-0.982c-0.113-1.021-0.625-1.275-1.1-1.814   c-0.504-0.484-1.123-1.019-1.727-1.619C9.26,8.816,8.223,7.395,8.246,6c0.021-1.943,1.211-2.795,3.047-3.42   C13.1,2.012,15.264,1.998,16.246,2V0c-1.018,0.002-3.354-0.012-5.549,0.672C8.535,1.293,6.223,2.943,6.246,6   c0.016,2.207,1.344,3.898,2.576,5.184c0.688,0.686,1.404,1.342,1.899,1.809C10.578,12.998,10.42,13,10.246,13   C7.994,13.004,6.279,12.99,4.869,13.287z" style="" fill="#C6BDAC"></path></g>
</svg>